# This file uses centimeters as units for non-parametric coordinates.

g default
v 3.614369 2.625993 -12.771122
v 1.380567 4.248946 -12.771122
v -1.380575 4.248945 -12.771122
v -3.614378 2.625992 -12.771122
v -4.467605 -0.000000 -12.771122
v -3.614378 -2.625993 -12.771122
v -1.380575 -4.248945 -12.771122
v 1.380567 -4.248945 -12.771122
v 3.614361 -2.625992 -12.771122
v 4.467605 0.000000 -12.771122
v 3.614369 2.625993 12.771122
v 1.380567 4.248946 12.771122
v -1.380575 4.248945 12.771122
v -3.614378 2.625992 12.771122
v -4.467605 -0.000000 12.771122
v -3.614378 -2.625993 12.771122
v -1.380575 -4.248945 12.771122
v 1.380567 -4.248945 12.771122
v 3.614361 -2.625992 12.771122
v 4.467605 0.000000 12.771122
v -0.000004 0.000000 -12.771122
v -0.000004 0.000000 12.771122
v -3.614378 2.625992 -11.622478
v -1.380575 4.248945 -11.622478
v 1.380567 4.248946 -11.622478
v 3.614369 2.625993 -11.622478
v 4.467605 0.000000 -11.622478
v 3.614361 -2.625992 -11.622478
v 1.380567 -4.248945 -11.622478
v -1.380575 -4.248945 -11.622478
v -3.614378 -2.625993 -11.622478
v -4.467605 -0.000000 -11.622478
v 4.124760 2.996812 -12.771122
v 1.575512 4.848945 -12.771122
v 1.575512 4.848945 -11.622478
v 4.124760 2.996819 -11.622478
v -1.575517 4.848945 -12.771122
v -1.575525 4.848945 -11.622478
v -4.124768 2.996809 -12.771122
v -4.124752 2.996820 -11.622478
v -5.098478 0.000003 -12.771122
v -5.098478 -0.000003 -11.622478
v -4.124752 -2.996821 -12.771122
v -4.124768 -2.996814 -11.622478
v -1.575525 -4.848945 -12.771122
v -1.575517 -4.848945 -11.622478
v 1.575512 -4.848945 -12.771122
v 1.575512 -4.848945 -11.622478
v 4.124756 -2.996811 -12.771122
v 4.124756 -2.996809 -11.622478
v 5.098478 -0.000003 -12.771122
v 5.098478 -0.000004 -11.622478
vt 0.626409 0.064409
vt 0.548284 0.007647
vt 0.451716 0.007647
vt 0.373591 0.064409
vt 0.343750 0.156250
vt 0.373591 0.248091
vt 0.451716 0.304853
vt 0.548284 0.304853
vt 0.626409 0.248091
vt 0.656250 0.156250
vt 0.375000 0.312500
vt 0.400000 0.312500
vt 0.425000 0.312500
vt 0.450000 0.312500
vt 0.475000 0.312500
vt 0.500000 0.312500
vt 0.525000 0.312500
vt 0.550000 0.312500
vt 0.575000 0.312500
vt 0.600000 0.312500
vt 0.625000 0.312500
vt 0.375000 0.688440
vt 0.400000 0.688440
vt 0.425000 0.688440
vt 0.450000 0.688440
vt 0.475000 0.688440
vt 0.500000 0.688440
vt 0.525000 0.688440
vt 0.550000 0.688440
vt 0.575000 0.688440
vt 0.600000 0.688440
vt 0.625000 0.688440
vt 0.626409 0.751909
vt 0.548284 0.695147
vt 0.451716 0.695147
vt 0.373591 0.751909
vt 0.343750 0.843750
vt 0.373591 0.935591
vt 0.451716 0.992353
vt 0.548284 0.992353
vt 0.626409 0.935591
vt 0.656250 0.843750
vt 0.500000 0.150000
vt 0.500000 0.837500
vt 0.450000 0.341167
vt 0.425000 0.341167
vt 0.400000 0.341167
vt 0.625000 0.341167
vt 0.375000 0.341167
vt 0.600000 0.341167
vt 0.575000 0.341167
vt 0.550000 0.341167
vt 0.525000 0.341167
vt 0.500000 0.341167
vt 0.475000 0.341167
vt 0.375000 0.312500
vt 0.400000 0.312500
vt 0.400000 0.341167
vt 0.375000 0.341167
vt 0.425000 0.312500
vt 0.425000 0.341167
vt 0.450000 0.312500
vt 0.450000 0.341167
vt 0.475000 0.312500
vt 0.475000 0.341167
vt 0.500000 0.312500
vt 0.500000 0.341167
vt 0.525000 0.312500
vt 0.525000 0.341167
vt 0.550000 0.312500
vt 0.550000 0.341167
vt 0.575000 0.312500
vt 0.575000 0.341167
vt 0.600000 0.312500
vt 0.600000 0.341167
vt 0.625000 0.312500
vt 0.625000 0.341167
vn 0.587784 0.809018 -0.000002
vn 0.587784 0.809018 -0.000002
vn 0.587784 0.809018 -0.000002
vn 0.587784 0.809018 -0.000002
vn -0.000000 1.000000 -0.000001
vn -0.000000 1.000000 -0.000001
vn -0.000000 1.000000 -0.000001
vn -0.000000 1.000000 -0.000001
vn -0.587786 0.809017 -0.000002
vn -0.587786 0.809017 -0.000002
vn -0.587786 0.809017 -0.000002
vn -0.587786 0.809017 -0.000002
vn -0.951057 0.309016 0.000006
vn -0.951057 0.309016 0.000006
vn -0.951057 0.309016 0.000006
vn -0.951057 0.309016 0.000006
vn -0.951057 -0.309016 -0.000007
vn -0.951057 -0.309016 -0.000007
vn -0.951057 -0.309016 -0.000007
vn -0.951057 -0.309016 -0.000007
vn -0.587785 -0.809017 0.000000
vn -0.587785 -0.809017 0.000000
vn -0.587785 -0.809017 0.000000
vn -0.587785 -0.809017 0.000000
vn 0.000000 -1.000000 0.000000
vn 0.000000 -1.000000 0.000000
vn 0.000000 -1.000000 0.000000
vn 0.000000 -1.000000 0.000000
vn 0.587785 -0.809017 0.000001
vn 0.587785 -0.809017 0.000001
vn 0.587785 -0.809017 0.000001
vn 0.587785 -0.809017 0.000001
vn 0.951056 -0.309017 0.000000
vn 0.951056 -0.309017 0.000000
vn 0.951056 -0.309017 0.000000
vn 0.951056 -0.309017 0.000000
vn 0.951057 0.309016 -0.000001
vn 0.951057 0.309016 -0.000001
vn 0.951057 0.309016 -0.000001
vn 0.951057 0.309016 -0.000001
vn 0.000000 0.000000 -1.000000
vn 0.000000 0.000000 -1.000000
vn 0.000000 0.000000 -1.000000
vn 0.000000 0.000000 -1.000000
vn 0.000000 0.000000 -1.000000
vn 0.000000 0.000000 -1.000000
vn -0.000000 0.000000 -1.000000
vn -0.000000 0.000000 -1.000000
vn 0.000000 0.000000 -1.000000
vn 0.000000 0.000000 -1.000000
vn 0.000000 0.000000 -1.000000
vn 0.000000 0.000000 1.000000
vn 0.000000 0.000000 1.000000
vn -0.000000 0.000000 1.000000
vn 0.000000 0.000000 1.000000
vn 0.000000 0.000000 1.000000
vn -0.000000 0.000000 1.000000
vn -0.000000 0.000000 1.000000
vn 0.000000 0.000000 1.000000
vn 0.000000 0.000000 1.000000
vn 0.000000 0.000000 1.000000
vn 0.000000 0.000000 1.000000
vn -0.587785 0.809017 0.000000
vn -0.587785 0.809017 0.000000
vn -0.587785 0.809017 0.000000
vn -0.587785 0.809017 0.000000
vn -0.000000 1.000000 0.000000
vn -0.000000 1.000000 0.000000
vn -0.000000 1.000000 0.000000
vn -0.000000 1.000000 0.000000
vn 0.587785 0.809017 0.000000
vn 0.587785 0.809017 0.000000
vn 0.587785 0.809017 0.000000
vn 0.587785 0.809017 0.000000
vn 0.951057 0.309017 0.000000
vn 0.951057 0.309017 0.000000
vn 0.951057 0.309017 0.000000
vn 0.951057 0.309017 0.000000
vn 0.951056 -0.309020 0.000000
vn 0.951056 -0.309020 0.000000
vn 0.951056 -0.309020 0.000000
vn 0.951056 -0.309020 0.000000
vn 0.587787 -0.809016 0.000000
vn 0.587787 -0.809016 0.000000
vn 0.587787 -0.809016 0.000000
vn 0.587787 -0.809016 0.000000
vn 0.000000 -1.000000 0.000000
vn 0.000000 -1.000000 0.000000
vn 0.000000 -1.000000 0.000000
vn 0.000000 -1.000000 0.000000
vn -0.587785 -0.809017 0.000000
vn -0.587785 -0.809017 0.000000
vn -0.587785 -0.809017 0.000000
vn -0.587785 -0.809017 0.000000
vn -0.951058 -0.309014 0.000000
vn -0.951058 -0.309014 0.000000
vn -0.951058 -0.309014 0.000000
vn -0.951058 -0.309014 0.000000
vn -0.951057 0.309014 0.000000
vn -0.951057 0.309014 0.000000
vn -0.951057 0.309014 0.000000
vn -0.951057 0.309014 0.000000
vn -0.000000 0.000000 -1.000000
vn 0.000000 0.000000 -1.000000
vn 0.000000 0.000000 1.000000
vn 0.000001 0.000000 1.000000
vn 0.000001 0.000000 1.000000
vn 0.000000 0.000000 1.000000
vn 0.000000 0.000000 -1.000000
vn 0.000001 0.000000 1.000000
vn 0.000001 0.000000 1.000000
vn 0.000001 0.000000 -1.000000
vn 0.000000 0.000000 1.000000
vn 0.000000 0.000000 1.000000
vn 0.000000 0.000000 -1.000000
vn -0.000000 0.000000 1.000000
vn -0.000000 0.000000 1.000000
vn -0.000001 0.000000 -1.000000
vn 0.000000 0.000000 1.000000
vn 0.000000 0.000000 1.000000
vn -0.000000 0.000000 -1.000000
vn 0.000000 0.000000 1.000000
vn 0.000000 0.000000 1.000000
vn 0.000000 0.000000 -1.000000
vn -0.000000 0.000000 1.000000
vn -0.000000 0.000000 1.000000
vn 0.000000 0.000000 -1.000000
vn -0.000000 0.000000 1.000000
vn -0.000000 0.000000 1.000000
vn 0.000000 0.000000 -1.000000
vn 0.000000 0.000000 1.000000
vn 0.000000 0.000000 1.000000
g shotgun_shell
f 33/56/1 34/57/2 35/58/3 36/59/4
f 34/57/5 37/60/6 38/61/7 35/58/8
f 37/60/9 39/62/10 40/63/11 38/61/12
f 39/62/13 41/64/14 42/65/15 40/63/16
f 41/64/17 43/66/18 44/67/19 42/65/20
f 43/66/21 45/68/22 46/69/23 44/67/24
f 45/68/25 47/70/26 48/71/27 46/69/28
f 47/70/29 49/72/30 50/73/31 48/71/32
f 49/72/33 51/74/34 52/75/35 50/73/36
f 51/74/37 33/76/38 36/77/39 52/75/40
f 2/2/41 1/1/42 21/43/43
f 3/3/44 2/2/41 21/43/43
f 4/4/45 3/3/44 21/43/43
f 5/5/46 4/4/45 21/43/43
f 6/6/47 5/5/46 21/43/43
f 7/7/48 6/6/47 21/43/43
f 8/8/49 7/7/48 21/43/43
f 9/9/50 8/8/49 21/43/43
f 10/10/51 9/9/50 21/43/43
f 1/1/42 10/10/51 21/43/43
f 11/41/52 12/40/53 22/44/54
f 12/40/53 13/39/55 22/44/54
f 13/39/55 14/38/56 22/44/54
f 14/38/56 15/37/57 22/44/54
f 15/37/57 16/36/58 22/44/54
f 16/36/58 17/35/59 22/44/54
f 17/35/59 18/34/60 22/44/54
f 18/34/60 19/33/61 22/44/54
f 19/33/61 20/42/62 22/44/54
f 20/42/62 11/41/52 22/44/54
f 24/46/63 23/45/64 14/25/65 13/24/66
f 25/47/67 24/46/68 13/24/69 12/23/70
f 26/49/71 25/47/72 12/23/73 11/22/74
f 27/50/75 26/48/76 11/32/77 20/31/78
f 28/51/79 27/50/80 20/31/81 19/30/82
f 29/52/83 28/51/84 19/30/85 18/29/86
f 30/53/87 29/52/88 18/29/89 17/28/90
f 31/54/91 30/53/92 17/28/93 16/27/94
f 32/55/95 31/54/96 16/27/97 15/26/98
f 23/45/99 32/55/100 15/26/101 14/25/102
f 1/11/42 2/12/41 34/57/103 33/56/104
f 25/47/105 26/49/106 36/59/107 35/58/108
f 2/12/41 3/13/44 37/60/109 34/57/103
f 24/46/110 25/47/105 35/58/108 38/61/111
f 3/13/44 4/14/45 39/62/112 37/60/109
f 23/45/113 24/46/110 38/61/111 40/63/114
f 4/14/45 5/15/46 41/64/115 39/62/112
f 32/55/116 23/45/113 40/63/114 42/65/117
f 5/15/46 6/16/47 43/66/118 41/64/115
f 31/54/119 32/55/116 42/65/117 44/67/120
f 6/16/47 7/17/48 45/68/121 43/66/118
f 30/53/122 31/54/119 44/67/120 46/69/123
f 7/17/48 8/18/49 47/70/124 45/68/121
f 29/52/125 30/53/122 46/69/123 48/71/126
f 8/18/49 9/19/50 49/72/127 47/70/124
f 28/51/128 29/52/125 48/71/126 50/73/129
f 9/19/50 10/20/51 51/74/130 49/72/127
f 27/50/131 28/51/128 50/73/129 52/75/132
f 10/20/51 1/21/42 33/76/104 51/74/130
f 26/48/106 27/50/131 52/75/132 36/77/107
g default
v 3.614386 2.625993 9.841635
v 1.380584 4.248946 9.841635
v -1.380567 4.248945 9.841635
v -3.614369 2.625992 9.841635
v -4.467597 -0.000000 9.841635
v -3.614369 -2.625993 9.841635
v -1.380567 -4.248945 9.841635
v 1.380584 -4.248945 9.841635
v 3.614386 -2.625992 9.841635
v 4.467614 -0.000000 9.841635
v -0.000000 -0.000000 9.841635
v -3.614369 2.625992 -9.841636
v -1.380567 4.248945 -9.841636
v 1.380584 4.248945 -9.841636
v 3.614386 2.625993 -9.841636
v 4.467614 0.000000 -9.841636
v 3.614386 -2.625992 -9.841636
v 1.380584 -4.248945 -9.841636
v -1.380567 -4.248945 -9.841636
v -3.614369 -2.625993 -9.841636
v -4.467597 -0.000000 -9.841636
v 0.000009 0.000000 -9.841636
v -3.614369 2.625992 -9.041636
v -1.380567 4.248945 -9.041636
v -3.614369 2.625992 -6.377563
v -1.380567 4.248945 -6.377563
v 1.380584 4.248945 -9.041636
v 1.380584 4.248945 -6.377563
v 3.614386 2.625993 -9.041636
v 3.614386 2.625993 -6.377563
v 4.467614 0.000000 -9.041636
v 4.467614 0.000000 -6.377563
v 3.614386 -2.625992 -9.041636
v 3.614386 -2.625992 -6.377563
v 1.380584 -4.248945 -9.041636
v 1.380584 -4.248945 -6.377563
v -1.380567 -4.248945 -9.041636
v -1.380567 -4.248945 -6.377563
v -3.614369 -2.625993 -9.041636
v -3.614369 -2.625993 -6.377563
v -4.467597 -0.000000 -9.041636
v -4.467597 -0.000000 -6.377563
v -3.103979 2.255166 -8.955697
v -1.185617 3.648945 -8.955697
v -3.103979 2.255174 -6.463501
v -1.185608 3.648945 -6.463501
v 1.185642 3.648945 -8.955697
v 1.185642 3.648945 -6.463501
v 3.104004 2.255167 -8.955697
v 3.103996 2.255176 -6.463501
v 3.836741 0.000005 -8.955697
v 3.836741 -0.000004 -6.463501
v 3.103996 -2.255174 -8.955697
v 3.103996 -2.255172 -6.463501
v 1.185642 -3.648945 -8.955697
v 1.185642 -3.648945 -6.463501
v -1.185617 -3.648945 -8.955697
v -1.185617 -3.648945 -6.463501
v -3.103979 -2.255176 -8.955697
v -3.103979 -2.255177 -6.463501
v -3.836724 -0.000005 -8.955697
v -3.836724 0.000005 -6.463501
vt 0.375000 0.688440
vt 0.400000 0.688440
vt 0.425000 0.688440
vt 0.450000 0.688440
vt 0.475000 0.688440
vt 0.500000 0.688440
vt 0.525000 0.688440
vt 0.550000 0.688440
vt 0.575000 0.688440
vt 0.600000 0.688440
vt 0.625000 0.688440
vt 0.626409 0.751909
vt 0.548284 0.695147
vt 0.451716 0.695147
vt 0.373591 0.751909
vt 0.343750 0.843750
vt 0.373591 0.935591
vt 0.451716 0.992353
vt 0.548284 0.992353
vt 0.626409 0.935591
vt 0.656250 0.843750
vt 0.500000 0.837500
vt 0.450000 0.369774
vt 0.425000 0.369774
vt 0.400000 0.369774
vt 0.625000 0.369774
vt 0.375000 0.369774
vt 0.600000 0.369774
vt 0.575000 0.369774
vt 0.550000 0.369774
vt 0.525000 0.369774
vt 0.500000 0.369774
vt 0.475000 0.369774
vt 0.000000 0.000000
vt 1.000000 0.000000
vt 0.500000 1.000000
vt 0.000000 0.000000
vt 1.000000 0.000000
vt 0.500000 1.000000
vt 0.000000 0.000000
vt 1.000000 0.000000
vt 0.500000 1.000000
vt 0.000000 0.000000
vt 1.000000 0.000000
vt 0.500000 1.000000
vt 0.000000 0.000000
vt 1.000000 0.000000
vt 0.500000 1.000000
vt 0.000000 0.000000
vt 1.000000 0.000000
vt 0.500000 1.000000
vt 0.000000 0.000000
vt 1.000000 0.000000
vt 0.500000 1.000000
vt 0.000000 0.000000
vt 1.000000 0.000000
vt 0.500000 1.000000
vt 0.000000 0.000000
vt 1.000000 0.000000
vt 0.500000 1.000000
vt 0.000000 0.000000
vt 1.000000 0.000000
vt 0.500000 1.000000
vt 0.425000 0.369774
vt 0.450000 0.369774
vt 0.450000 0.411984
vt 0.425000 0.411984
vt 0.400000 0.369774
vt 0.400000 0.411984
vt 0.375000 0.369774
vt 0.375000 0.411984
vt 0.600000 0.369774
vt 0.625000 0.369774
vt 0.625000 0.411984
vt 0.600000 0.411984
vt 0.575000 0.369774
vt 0.575000 0.411984
vt 0.550000 0.369774
vt 0.550000 0.411984
vt 0.525000 0.369774
vt 0.525000 0.411984
vt 0.500000 0.369774
vt 0.500000 0.411984
vt 0.475000 0.369774
vt 0.475000 0.411984
vt 0.425000 0.369774
vt 0.450000 0.369774
vt 0.450000 0.411984
vt 0.425000 0.411984
vt 0.400000 0.369774
vt 0.400000 0.411984
vt 0.375000 0.369774
vt 0.375000 0.411984
vt 0.600000 0.369774
vt 0.625000 0.369774
vt 0.625000 0.411984
vt 0.600000 0.411984
vt 0.575000 0.369774
vt 0.575000 0.411984
vt 0.550000 0.369774
vt 0.550000 0.411984
vt 0.525000 0.369774
vt 0.525000 0.411984
vt 0.500000 0.369774
vt 0.500000 0.411984
vt 0.475000 0.369774
vt 0.475000 0.411984
vn -0.000000 0.000000 1.000000
vn -0.000000 0.000000 1.000000
vn -0.000000 0.000000 1.000000
vn 0.000000 0.000000 1.000000
vn 0.000000 0.000000 1.000000
vn -0.000000 0.000000 1.000000
vn 0.000000 0.000000 1.000000
vn 0.000000 0.000000 1.000000
vn 0.000000 0.000000 1.000000
vn 0.000000 0.000000 1.000000
vn 0.000000 0.000000 1.000000
vn -0.587786 0.809017 -0.000000
vn -0.587786 0.809017 -0.000000
vn -0.587786 0.809017 -0.000000
vn -0.587786 0.809017 -0.000000
vn 0.000000 1.000000 0.000000
vn 0.000000 1.000000 0.000000
vn 0.000000 1.000000 0.000000
vn 0.000000 1.000000 0.000000
vn 0.587787 0.809016 -0.000000
vn 0.587787 0.809016 -0.000000
vn 0.587787 0.809016 -0.000000
vn 0.587787 0.809016 -0.000000
vn 0.951058 0.309014 0.000002
vn 0.951058 0.309014 0.000002
vn 0.951058 0.309014 0.000002
vn 0.951058 0.309014 0.000002
vn 0.951057 -0.309015 -0.000000
vn 0.951057 -0.309015 -0.000000
vn 0.951057 -0.309015 -0.000000
vn 0.951057 -0.309015 -0.000000
vn 0.587787 -0.809016 0.000000
vn 0.587787 -0.809016 0.000000
vn 0.587787 -0.809016 0.000000
vn 0.587787 -0.809016 0.000000
vn 0.000000 -1.000000 0.000000
vn 0.000000 -1.000000 0.000000
vn 0.000000 -1.000000 0.000000
vn 0.000000 -1.000000 0.000000
vn -0.587785 -0.809017 -0.000000
vn -0.587785 -0.809017 -0.000000
vn -0.587785 -0.809017 -0.000000
vn -0.587785 -0.809017 -0.000000
vn -0.951057 -0.309015 0.000001
vn -0.951057 -0.309015 0.000001
vn -0.951057 -0.309015 0.000001
vn -0.951057 -0.309015 0.000001
vn -0.951057 0.309016 -0.000001
vn -0.951057 0.309016 -0.000001
vn -0.951057 0.309015 -0.000001
vn -0.951057 0.309015 -0.000001
vn 0.000000 0.000000 -1.000000
vn 0.000000 0.000000 -1.000000
vn 0.000000 0.000000 -1.000000
vn 0.000000 0.000000 -1.000000
vn 0.000000 0.000000 -1.000000
vn 0.000000 0.000000 -1.000000
vn 0.000000 0.000000 -1.000000
vn 0.000000 0.000000 -1.000000
vn 0.000000 0.000000 -1.000000
vn 0.000000 0.000000 -1.000000
vn 0.000000 0.000000 -1.000000
vn 0.000000 0.000000 -1.000000
vn 0.000000 0.000000 -1.000000
vn 0.000000 0.000000 -1.000000
vn 0.000000 0.000000 -1.000000
vn 0.000000 0.000000 -1.000000
vn 0.000000 0.000000 -1.000000
vn 0.000000 0.000000 -1.000000
vn 0.000000 0.000000 -1.000000
vn 0.000000 0.000000 -1.000000
vn 0.000000 0.000000 -1.000000
vn 0.000000 0.000000 -1.000000
vn 0.000000 0.000000 -1.000000
vn 0.000000 0.000000 -1.000000
vn 0.000000 0.000000 -1.000000
vn 0.000000 0.000000 -1.000000
vn 0.000000 0.000000 -1.000000
vn -0.000000 0.000000 -1.000000
vn -0.000000 0.000000 -1.000000
vn -0.000000 0.000000 -1.000000
vn -0.587785 0.809017 0.000000
vn -0.587785 0.809017 0.000000
vn -0.587785 0.809017 0.000000
vn -0.587785 0.809017 0.000000
vn -0.587785 0.809017 0.000000
vn -0.587785 0.809017 0.000000
vn -0.587785 0.809017 0.000000
vn -0.587785 0.809017 0.000000
vn 0.000000 1.000000 0.000000
vn 0.000000 1.000000 0.000000
vn 0.000000 1.000000 0.000000
vn 0.000000 1.000000 0.000000
vn -0.000000 1.000000 0.000000
vn -0.000000 1.000000 0.000000
vn -0.000000 1.000000 0.000000
vn -0.000000 1.000000 0.000000
vn 0.587785 0.809017 0.000000
vn 0.587785 0.809017 0.000000
vn 0.587785 0.809017 0.000000
vn 0.587785 0.809017 0.000000
vn 0.587785 0.809017 -0.000000
vn 0.587785 0.809017 -0.000000
vn 0.587785 0.809017 -0.000000
vn 0.587785 0.809017 -0.000000
vn 0.951058 0.309014 0.000000
vn 0.951058 0.309014 0.000000
vn 0.951058 0.309014 0.000000
vn 0.951058 0.309014 0.000000
vn 0.951058 0.309014 0.000000
vn 0.951058 0.309014 0.000000
vn 0.951058 0.309014 0.000000
vn 0.951058 0.309014 0.000000
vn 0.951058 -0.309014 0.000000
vn 0.951058 -0.309014 0.000000
vn 0.951058 -0.309014 0.000000
vn 0.951058 -0.309014 0.000000
vn 0.951058 -0.309014 0.000000
vn 0.951058 -0.309014 0.000000
vn 0.951058 -0.309014 0.000000
vn 0.951058 -0.309014 0.000000
vn 0.587785 -0.809017 0.000000
vn 0.587785 -0.809017 0.000000
vn 0.587785 -0.809017 0.000000
vn 0.587785 -0.809017 0.000000
vn 0.587785 -0.809017 0.000000
vn 0.587785 -0.809017 0.000000
vn 0.587785 -0.809017 0.000000
vn 0.587785 -0.809017 0.000000
vn 0.000000 -1.000000 0.000000
vn 0.000000 -1.000000 0.000000
vn 0.000000 -1.000000 0.000000
vn 0.000000 -1.000000 0.000000
vn 0.000000 -1.000000 0.000000
vn 0.000000 -1.000000 0.000000
vn 0.000000 -1.000000 0.000000
vn 0.000000 -1.000000 0.000000
vn -0.587785 -0.809017 0.000000
vn -0.587785 -0.809017 0.000000
vn -0.587785 -0.809017 0.000000
vn -0.587785 -0.809017 0.000000
vn -0.587785 -0.809017 0.000000
vn -0.587785 -0.809017 0.000000
vn -0.587785 -0.809017 0.000000
vn -0.587785 -0.809017 0.000000
vn -0.951058 -0.309014 0.000000
vn -0.951058 -0.309014 0.000000
vn -0.951058 -0.309014 0.000000
vn -0.951058 -0.309014 0.000000
vn -0.951058 -0.309014 0.000000
vn -0.951058 -0.309014 0.000000
vn -0.951058 -0.309014 0.000000
vn -0.951058 -0.309014 0.000000
vn -0.951058 0.309014 0.000000
vn -0.951058 0.309014 0.000000
vn -0.951058 0.309014 0.000000
vn -0.951058 0.309014 0.000000
vn -0.951057 0.309014 0.000000
vn -0.951057 0.309014 0.000000
vn -0.951057 0.309014 0.000000
vn -0.951057 0.309014 0.000000
vn -0.041709 0.128369 0.990849
vn -0.109197 0.079337 0.990849
vn -0.109198 0.079336 0.990849
vn -0.041710 0.128369 0.990849
vn -0.109196 0.079336 -0.990849
vn -0.041709 0.128368 -0.990849
vn -0.041709 0.128368 -0.990849
vn -0.109196 0.079336 -0.990849
vn 0.041709 0.128370 0.990849
vn 0.041710 0.128370 0.990849
vn 0.041709 0.128369 -0.990849
vn 0.041709 0.128368 -0.990849
vn 0.109198 0.079337 0.990849
vn 0.109198 0.079337 0.990849
vn 0.109197 0.079336 -0.990849
vn 0.109197 0.079336 -0.990849
vn 0.134977 -0.000000 0.990849
vn 0.134977 0.000000 0.990849
vn 0.134975 0.000000 -0.990849
vn 0.134975 -0.000000 -0.990849
vn 0.109199 -0.079337 0.990849
vn 0.109199 -0.079337 0.990849
vn 0.109197 -0.079336 -0.990849
vn 0.109197 -0.079336 -0.990849
vn 0.041710 -0.128370 0.990849
vn 0.041710 -0.128370 0.990849
vn 0.041709 -0.128368 -0.990849
vn 0.041710 -0.128368 -0.990849
vn -0.041709 -0.128370 0.990849
vn -0.041709 -0.128370 0.990849
vn -0.041709 -0.128368 -0.990849
vn -0.041709 -0.128368 -0.990849
vn -0.109198 -0.079337 0.990849
vn -0.109198 -0.079337 0.990849
vn -0.109197 -0.079336 -0.990849
vn -0.109197 -0.079336 -0.990849
vn -0.134976 0.000000 0.990849
vn -0.134976 -0.000000 0.990849
vn -0.134975 -0.000000 -0.990849
vn -0.134975 0.000000 -0.990849
g pistol_shell
f 53/97/133 54/96/134 63/99/135
f 54/96/134 55/95/136 63/99/135
f 55/95/136 56/94/137 63/99/135
f 56/94/137 57/93/138 63/99/135
f 57/93/138 58/92/139 63/99/135
f 58/92/139 59/91/140 63/99/135
f 59/91/140 60/90/141 63/99/135
f 60/90/141 61/89/142 63/99/135
f 61/89/142 62/98/143 63/99/135
f 62/98/143 53/97/133 63/99/135
f 96/163/144 95/164/145 97/165/146 98/166/147
f 99/167/148 96/163/149 98/166/150 100/168/151
f 101/169/152 99/167/153 100/168/154 102/170/155
f 103/171/156 101/172/157 102/173/158 104/174/159
f 105/175/160 103/171/161 104/174/162 106/176/163
f 107/177/164 105/175/165 106/176/166 108/178/167
f 109/179/168 107/177/169 108/178/170 110/180/171
f 111/181/172 109/179/173 110/180/174 112/182/175
f 113/183/176 111/181/177 112/182/178 114/184/179
f 95/164/180 113/183/181 114/184/182 97/165/183
f 64/111/184 65/112/185 74/113/186
f 65/114/187 66/115/188 74/116/189
f 66/117/190 67/118/191 74/119/192
f 67/120/193 68/121/194 74/122/195
f 68/123/196 69/124/197 74/125/198
f 69/126/199 70/127/200 74/128/201
f 70/129/202 71/130/203 74/131/204
f 71/132/205 72/133/206 74/134/207
f 72/135/208 73/136/209 74/137/210
f 73/138/211 64/139/212 74/140/213
f 65/101/214 64/100/215 75/142/216 76/141/217
f 55/80/218 78/144/219 77/143/220 56/81/221
f 66/102/222 65/101/223 76/141/224 79/145/225
f 54/79/226 80/146/227 78/144/228 55/80/229
f 67/104/230 66/102/231 79/145/232 81/147/233
f 53/78/234 82/148/235 80/146/236 54/79/237
f 68/105/238 67/103/239 81/150/240 83/149/241
f 62/87/242 84/152/243 82/151/244 53/88/245
f 69/106/246 68/105/247 83/149/248 85/153/249
f 61/86/250 86/154/251 84/152/252 62/87/253
f 70/107/254 69/106/255 85/153/256 87/155/257
f 60/85/258 88/156/259 86/154/260 61/86/261
f 71/108/262 70/107/263 87/155/264 89/157/265
f 59/84/266 90/158/267 88/156/268 60/85/269
f 72/109/270 71/108/271 89/157/272 91/159/273
f 58/83/274 92/160/275 90/158/276 59/84/277
f 73/110/278 72/109/279 91/159/280 93/161/281
f 57/82/282 94/162/283 92/160/284 58/83/285
f 64/100/286 73/110/287 93/161/288 75/142/289
f 56/81/290 77/143/291 94/162/292 57/82/293
f 76/141/294 75/142/295 95/164/296 96/163/297
f 77/143/298 78/144/299 98/166/300 97/165/301
f 79/145/302 76/141/294 96/163/297 99/167/303
f 78/144/299 80/146/304 100/168/305 98/166/300
f 81/147/306 79/145/302 99/167/303 101/169/307
f 80/146/304 82/148/308 102/170/309 100/168/305
f 83/149/310 81/150/306 101/172/307 103/171/311
f 82/151/308 84/152/312 104/174/313 102/173/309
f 85/153/314 83/149/310 103/171/311 105/175/315
f 84/152/312 86/154/316 106/176/317 104/174/313
f 87/155/318 85/153/314 105/175/315 107/177/319
f 86/154/316 88/156/320 108/178/321 106/176/317
f 89/157/322 87/155/318 107/177/319 109/179/323
f 88/156/320 90/158/324 110/180/325 108/178/321
f 91/159/326 89/157/322 109/179/323 111/181/327
f 90/158/324 92/160/328 112/182/329 110/180/325
f 93/161/330 91/159/326 111/181/327 113/183/331
f 92/160/328 94/162/332 114/184/333 112/182/329
f 75/142/295 93/161/330 113/183/331 95/164/296
f 94/162/332 77/143/298 97/165/301 114/184/333
